<svg xmlns="http://www.w3.org/2000/svg" xmlns:xlink="http://www.w3.org/1999/xlink" width="500" zoomAndPan="magnify" viewBox="0 0 375 374.999991" height="500" preserveAspectRatio="xMidYMid meet" version="1.0"><defs><clipPath id="26d6491c40"><path d="M 319.257812 268.023438 L 337.496094 268.023438 L 337.496094 337.488281 L 319.257812 337.488281 Z M 319.257812 268.023438 " clip-rule="nonzero"/></clipPath><clipPath id="c0e89dc3f0"><path d="M 266.386719 319.257812 L 335.855469 319.257812 L 335.855469 337.496094 L 266.386719 337.496094 Z M 266.386719 319.257812 " clip-rule="nonzero"/></clipPath><clipPath id="052d56aaa8"><path d="M 37.5 37.5 L 55.738281 37.5 L 55.738281 106.96875 L 37.5 106.96875 Z M 37.5 37.5 " clip-rule="nonzero"/></clipPath><clipPath id="f847f63629"><path d="M 39.144531 37.492188 L 108.609375 37.492188 L 108.609375 55.730469 L 39.144531 55.730469 Z M 39.144531 37.492188 " clip-rule="nonzero"/></clipPath><clipPath id="840f4f8585"><path d="M 37.5 319.253906 L 106.96875 319.253906 L 106.96875 337.492188 L 37.5 337.492188 Z M 37.5 319.253906 " clip-rule="nonzero"/></clipPath><clipPath id="707b09fb3a"><path d="M 37.492188 266.378906 L 55.730469 266.378906 L 55.730469 335.847656 L 37.492188 335.847656 Z M 37.492188 266.378906 " clip-rule="nonzero"/></clipPath><clipPath id="1f31af440d"><path d="M 268.023438 37.5 L 337.492188 37.5 L 337.492188 55.738281 L 268.023438 55.738281 Z M 268.023438 37.5 " clip-rule="nonzero"/></clipPath><clipPath id="eac8ffc6ff"><path d="M 319.257812 39.140625 L 337.496094 39.140625 L 337.496094 108.609375 L 319.257812 108.609375 Z M 319.257812 39.140625 " clip-rule="nonzero"/></clipPath><clipPath id="8ba60d66be"><path d="M 122.429688 99 L 252.929688 99 L 252.929688 276.441406 L 122.429688 276.441406 Z M 122.429688 99 " clip-rule="nonzero"/></clipPath></defs><g clip-path="url(#26d6491c40)"><path fill="#000000" d="M 337.496094 337.488281 L 319.257812 337.488281 L 319.257812 268.03125 L 337.496094 268.03125 Z M 337.496094 337.488281 " fill-opacity="1" fill-rule="nonzero"/></g><g clip-path="url(#c0e89dc3f0)"><path fill="#000000" d="M 335.855469 319.257812 L 335.855469 337.496094 L 266.394531 337.496094 L 266.394531 319.257812 Z M 335.855469 319.257812 " fill-opacity="1" fill-rule="nonzero"/></g><g clip-path="url(#052d56aaa8)"><path fill="#000000" d="M 37.5 37.5 L 55.738281 37.5 L 55.738281 106.960938 L 37.5 106.960938 Z M 37.5 37.5 " fill-opacity="1" fill-rule="nonzero"/></g><g clip-path="url(#f847f63629)"><path fill="#000000" d="M 39.144531 55.730469 L 39.144531 37.492188 L 108.601562 37.492188 L 108.601562 55.730469 Z M 39.144531 55.730469 " fill-opacity="1" fill-rule="nonzero"/></g><g clip-path="url(#840f4f8585)"><path fill="#000000" d="M 37.5 337.492188 L 37.5 319.253906 L 106.960938 319.253906 L 106.960938 337.492188 Z M 37.5 337.492188 " fill-opacity="1" fill-rule="nonzero"/></g><g clip-path="url(#707b09fb3a)"><path fill="#000000" d="M 55.730469 335.847656 L 37.492188 335.847656 L 37.492188 266.386719 L 55.730469 266.386719 Z M 55.730469 335.847656 " fill-opacity="1" fill-rule="nonzero"/></g><g clip-path="url(#1f31af440d)"><path fill="#000000" d="M 337.492188 37.5 L 337.492188 55.738281 L 268.03125 55.738281 L 268.03125 37.5 Z M 337.492188 37.5 " fill-opacity="1" fill-rule="nonzero"/></g><g clip-path="url(#eac8ffc6ff)"><path fill="#000000" d="M 319.257812 39.140625 L 337.496094 39.140625 L 337.496094 108.601562 L 319.257812 108.601562 Z M 319.257812 39.140625 " fill-opacity="1" fill-rule="nonzero"/></g><g clip-path="url(#8ba60d66be)"><path fill="#000000" d="M 135.640625 276.089844 L 239.753906 276.089844 C 240.621094 276.089844 241.480469 276.003906 242.332031 275.835938 C 243.183594 275.667969 244.007812 275.417969 244.8125 275.085938 C 245.613281 274.753906 246.375 274.347656 247.09375 273.867188 C 247.816406 273.386719 248.484375 272.839844 249.097656 272.226562 C 249.710938 271.617188 250.257812 270.949219 250.738281 270.230469 C 251.222656 269.511719 251.628906 268.75 251.960938 267.949219 C 252.292969 267.152344 252.542969 266.324219 252.710938 265.476562 C 252.882812 264.628906 252.964844 263.769531 252.964844 262.90625 L 252.964844 112.230469 C 252.964844 111.363281 252.882812 110.507812 252.710938 109.65625 C 252.542969 108.808594 252.292969 107.984375 251.960938 107.183594 C 251.628906 106.386719 251.222656 105.625 250.738281 104.90625 C 250.257812 104.183594 249.710938 103.519531 249.097656 102.90625 C 248.484375 102.296875 247.816406 101.75 247.09375 101.269531 C 246.375 100.785156 245.613281 100.378906 244.8125 100.050781 C 244.007812 99.71875 243.183594 99.46875 242.332031 99.300781 C 241.480469 99.128906 240.621094 99.046875 239.753906 99.046875 L 135.640625 99.046875 C 134.769531 99.046875 133.914062 99.128906 133.0625 99.300781 C 132.210938 99.46875 131.382812 99.71875 130.582031 100.050781 C 129.78125 100.378906 129.019531 100.785156 128.300781 101.269531 C 127.578125 101.75 126.910156 102.296875 126.296875 102.90625 C 125.683594 103.519531 125.136719 104.183594 124.65625 104.90625 C 124.171875 105.625 123.765625 106.386719 123.433594 107.183594 C 123.101562 107.984375 122.851562 108.808594 122.683594 109.65625 C 122.511719 110.507812 122.429688 111.363281 122.429688 112.230469 L 122.429688 262.90625 C 122.429688 263.769531 122.511719 264.628906 122.683594 265.476562 C 122.851562 266.324219 123.101562 267.152344 123.433594 267.949219 C 123.765625 268.75 124.171875 269.511719 124.65625 270.230469 C 125.136719 270.949219 125.683594 271.617188 126.296875 272.226562 C 126.910156 272.839844 127.578125 273.386719 128.300781 273.867188 C 129.019531 274.347656 129.78125 274.753906 130.582031 275.085938 C 131.382812 275.417969 132.210938 275.667969 133.0625 275.835938 C 133.914062 276.003906 134.769531 276.089844 135.640625 276.089844 Z M 129.976562 112.230469 C 129.976562 111.859375 130.011719 111.492188 130.085938 111.128906 C 130.160156 110.765625 130.265625 110.410156 130.40625 110.066406 C 130.550781 109.726562 130.726562 109.398438 130.929688 109.089844 C 131.136719 108.78125 131.371094 108.496094 131.636719 108.234375 C 131.898438 107.972656 132.183594 107.738281 132.492188 107.53125 C 132.800781 107.324219 133.128906 107.152344 133.472656 107.007812 C 133.816406 106.867188 134.167969 106.761719 134.535156 106.6875 C 134.898438 106.617188 135.265625 106.578125 135.640625 106.578125 L 239.753906 106.578125 C 240.128906 106.578125 240.496094 106.617188 240.859375 106.6875 C 241.226562 106.761719 241.578125 106.867188 241.921875 107.007812 C 242.265625 107.152344 242.59375 107.324219 242.902344 107.53125 C 243.210938 107.738281 243.496094 107.972656 243.757812 108.234375 C 244.023438 108.496094 244.257812 108.78125 244.464844 109.089844 C 244.667969 109.398438 244.84375 109.726562 244.984375 110.066406 C 245.128906 110.410156 245.234375 110.765625 245.308594 111.128906 C 245.382812 111.492188 245.417969 111.859375 245.417969 112.230469 L 245.417969 262.90625 C 245.417969 263.277344 245.382812 263.644531 245.308594 264.007812 C 245.234375 264.371094 245.128906 264.722656 244.984375 265.066406 C 244.84375 265.410156 244.667969 265.734375 244.464844 266.042969 C 244.257812 266.351562 244.023438 266.636719 243.757812 266.898438 C 243.496094 267.164062 243.210938 267.398438 242.902344 267.601562 C 242.59375 267.808594 242.265625 267.984375 241.921875 268.125 C 241.578125 268.265625 241.226562 268.375 240.859375 268.445312 C 240.496094 268.519531 240.128906 268.554688 239.753906 268.554688 L 135.640625 268.554688 C 135.265625 268.554688 134.898438 268.519531 134.535156 268.445312 C 134.167969 268.375 133.816406 268.265625 133.472656 268.125 C 133.128906 267.984375 132.800781 267.808594 132.492188 267.601562 C 132.183594 267.398438 131.898438 267.164062 131.636719 266.898438 C 131.371094 266.636719 131.136719 266.351562 130.929688 266.042969 C 130.726562 265.734375 130.550781 265.410156 130.40625 265.066406 C 130.265625 264.722656 130.160156 264.371094 130.085938 264.007812 C 130.011719 263.644531 129.976562 263.277344 129.976562 262.90625 Z M 129.976562 112.230469 " fill-opacity="1" fill-rule="nonzero"/></g><path fill="#000000" d="M 231.886719 115.894531 L 143.480469 115.894531 L 143.480469 150.164062 L 231.886719 150.164062 Z M 224.335938 142.628906 L 151.027344 142.628906 L 151.027344 123.425781 L 224.335938 123.425781 Z M 224.335938 142.628906 " fill-opacity="1" fill-rule="nonzero"/><path fill="#000000" d="M 175.054688 186.351562 L 200.332031 186.351562 L 200.332031 161.125 L 175.054688 161.125 Z M 182.601562 168.65625 L 192.78125 168.65625 L 192.78125 178.820312 L 182.601562 178.820312 Z M 182.601562 168.65625 " fill-opacity="1" fill-rule="nonzero"/><path fill="#000000" d="M 168.757812 161.125 L 143.480469 161.125 L 143.480469 186.351562 L 168.757812 186.351562 Z M 161.210938 178.820312 L 151.027344 178.820312 L 151.027344 168.65625 L 161.210938 168.65625 Z M 161.210938 178.820312 " fill-opacity="1" fill-rule="nonzero"/><path fill="#000000" d="M 206.636719 186.351562 L 231.886719 186.351562 L 231.886719 161.125 L 206.636719 161.125 Z M 214.183594 168.65625 L 224.335938 168.65625 L 224.335938 178.820312 L 214.183594 178.820312 Z M 214.183594 168.65625 " fill-opacity="1" fill-rule="nonzero"/><path fill="#000000" d="M 175.054688 217.703125 L 200.332031 217.703125 L 200.332031 192.511719 L 175.054688 192.511719 Z M 182.601562 200.007812 L 192.78125 200.007812 L 192.78125 210.167969 L 182.601562 210.167969 Z M 182.601562 200.007812 " fill-opacity="1" fill-rule="nonzero"/><path fill="#000000" d="M 168.757812 192.511719 L 143.480469 192.511719 L 143.480469 217.703125 L 168.757812 217.703125 Z M 161.210938 210.167969 L 151.027344 210.167969 L 151.027344 200.046875 L 161.210938 200.046875 Z M 161.210938 210.167969 " fill-opacity="1" fill-rule="nonzero"/><path fill="#000000" d="M 206.636719 217.703125 L 231.886719 217.703125 L 231.886719 192.511719 L 206.636719 192.511719 Z M 214.183594 200.007812 L 224.335938 200.007812 L 224.335938 210.167969 L 214.183594 210.167969 Z M 214.183594 200.007812 " fill-opacity="1" fill-rule="nonzero"/><path fill="#000000" d="M 175.054688 249.128906 L 200.332031 249.128906 L 200.332031 223.898438 L 175.054688 223.898438 Z M 182.601562 231.433594 L 192.78125 231.433594 L 192.78125 241.59375 L 182.601562 241.59375 Z M 182.601562 231.433594 " fill-opacity="1" fill-rule="nonzero"/><path fill="#000000" d="M 168.757812 223.898438 L 143.480469 223.898438 L 143.480469 249.128906 L 168.757812 249.128906 Z M 161.210938 241.59375 L 151.027344 241.59375 L 151.027344 231.433594 L 161.210938 231.433594 Z M 161.210938 241.59375 " fill-opacity="1" fill-rule="nonzero"/><path fill="#000000" d="M 206.636719 249.128906 L 231.886719 249.128906 L 231.886719 223.898438 L 206.636719 223.898438 Z M 214.183594 231.433594 L 224.335938 231.433594 L 224.335938 241.59375 L 214.183594 241.59375 Z M 214.183594 231.433594 " fill-opacity="1" fill-rule="nonzero"/></svg>