<svg xmlns="http://www.w3.org/2000/svg" xmlns:xlink="http://www.w3.org/1999/xlink" width="500" zoomAndPan="magnify" viewBox="0 0 375 374.999991" height="500" preserveAspectRatio="xMidYMid meet" version="1.0"><defs><clipPath id="9f496cf79b"><path d="M 147 178 L 173 178 L 173 204 L 147 204 Z M 147 178 " clip-rule="nonzero"/></clipPath><clipPath id="44fa551ab2"><path d="M 152.183594 175.476562 L 175.40625 182.917969 L 167.964844 206.140625 L 144.742188 198.699219 Z M 152.183594 175.476562 " clip-rule="nonzero"/></clipPath><clipPath id="b0cb1ce21a"><path d="M 163.796875 179.199219 C 157.382812 177.144531 150.519531 180.675781 148.464844 187.089844 C 146.410156 193.5 149.941406 200.363281 156.355469 202.417969 C 162.765625 204.472656 169.632812 200.941406 171.6875 194.527344 C 173.742188 188.117188 170.207031 181.253906 163.796875 179.199219 Z M 163.796875 179.199219 " clip-rule="nonzero"/></clipPath><clipPath id="34f81a8911"><path d="M 198 194 L 223 194 L 223 220 L 198 220 Z M 198 194 " clip-rule="nonzero"/></clipPath><clipPath id="0476cd1267"><path d="M 202.6875 191.660156 L 225.910156 199.101562 L 218.46875 222.324219 L 195.246094 214.882812 Z M 202.6875 191.660156 " clip-rule="nonzero"/></clipPath><clipPath id="93205e1ce4"><path d="M 214.300781 195.378906 C 207.886719 193.324219 201.023438 196.859375 198.96875 203.269531 C 196.914062 209.683594 200.445312 216.546875 206.859375 218.601562 C 213.269531 220.65625 220.136719 217.125 222.191406 210.710938 C 224.246094 204.300781 220.710938 197.433594 214.300781 195.378906 Z M 214.300781 195.378906 " clip-rule="nonzero"/></clipPath><clipPath id="8933b8155d"><path d="M 108 178 L 133 178 L 133 204 L 108 204 Z M 108 178 " clip-rule="nonzero"/></clipPath><clipPath id="8df62ef3ae"><path d="M 112.90625 175.707031 L 136.128906 183.148438 L 128.6875 206.371094 L 105.464844 198.929688 Z M 112.90625 175.707031 " clip-rule="nonzero"/></clipPath><clipPath id="2379776188"><path d="M 124.515625 179.425781 C 118.101562 177.371094 111.238281 180.90625 109.183594 187.316406 C 107.128906 193.730469 110.664062 200.59375 117.074219 202.648438 C 123.488281 204.703125 130.351562 201.171875 132.40625 194.757812 C 134.460938 188.347656 130.929688 181.480469 124.515625 179.425781 Z M 124.515625 179.425781 " clip-rule="nonzero"/></clipPath><clipPath id="b8d1208016"><path d="M 159 220 L 185 220 L 185 246 L 159 246 Z M 159 220 " clip-rule="nonzero"/></clipPath><clipPath id="920a959d1c"><path d="M 164.242188 217.761719 L 187.464844 225.203125 L 180.023438 248.425781 L 156.800781 240.984375 Z M 164.242188 217.761719 " clip-rule="nonzero"/></clipPath><clipPath id="1fdd7563e1"><path d="M 175.851562 221.484375 C 169.441406 219.429688 162.574219 222.960938 160.519531 229.375 C 158.464844 235.785156 162 242.652344 168.410156 244.707031 C 174.824219 246.761719 181.6875 243.226562 183.742188 236.816406 C 185.796875 230.402344 182.265625 223.539062 175.851562 221.484375 Z M 175.851562 221.484375 " clip-rule="nonzero"/></clipPath><clipPath id="2265e7e99d"><path d="M 165 107 L 190 107 L 190 132 L 165 132 Z M 165 107 " clip-rule="nonzero"/></clipPath><clipPath id="e321d9caec"><path d="M 169.519531 104.402344 L 192.742188 111.84375 L 185.300781 135.066406 L 162.078125 127.625 Z M 169.519531 104.402344 " clip-rule="nonzero"/></clipPath><clipPath id="496e76930a"><path d="M 181.128906 108.121094 C 174.71875 106.066406 167.851562 109.601562 165.796875 116.011719 C 163.742188 122.425781 167.277344 129.289062 173.6875 131.34375 C 180.101562 133.398438 186.964844 129.867188 189.019531 123.453125 C 191.074219 117.039062 187.542969 110.175781 181.128906 108.121094 Z M 181.128906 108.121094 " clip-rule="nonzero"/></clipPath><clipPath id="c9292c4273"><path d="M 220 125 L 246 125 L 246 150 L 220 150 Z M 220 125 " clip-rule="nonzero"/></clipPath><clipPath id="54ac60065e"><path d="M 224.957031 122.164062 L 248.179688 129.605469 L 240.738281 152.828125 L 217.515625 145.386719 Z M 224.957031 122.164062 " clip-rule="nonzero"/></clipPath><clipPath id="44ceb92a9e"><path d="M 236.566406 125.886719 C 230.152344 123.832031 223.289062 127.363281 221.234375 133.777344 C 219.179688 140.1875 222.714844 147.050781 229.125 149.109375 C 235.539062 151.164062 242.402344 147.628906 244.457031 141.21875 C 246.511719 134.804688 242.980469 127.941406 236.566406 125.886719 Z M 236.566406 125.886719 " clip-rule="nonzero"/></clipPath><clipPath id="88fbf231c9"><path d="M 125 133 L 151 133 L 151 158 L 125 158 Z M 125 133 " clip-rule="nonzero"/></clipPath><clipPath id="402f3fc5ea"><path d="M 130.199219 130.226562 L 153.421875 137.664062 L 145.980469 160.886719 L 122.757812 153.445312 Z M 130.199219 130.226562 " clip-rule="nonzero"/></clipPath><clipPath id="76e100ec0e"><path d="M 141.808594 133.945312 C 135.398438 131.890625 128.53125 135.421875 126.476562 141.835938 C 124.421875 148.25 127.957031 155.113281 134.367188 157.167969 C 140.78125 159.222656 147.644531 155.6875 149.699219 149.277344 C 151.753906 142.863281 148.222656 136 141.808594 133.945312 Z M 141.808594 133.945312 " clip-rule="nonzero"/></clipPath><clipPath id="88975a75f5"><path d="M 182 151 L 207 151 L 207 176 L 182 176 Z M 182 151 " clip-rule="nonzero"/></clipPath><clipPath id="d84752ae0e"><path d="M 186.507812 148.269531 L 209.730469 155.710938 L 202.289062 178.929688 L 179.066406 171.492188 Z M 186.507812 148.269531 " clip-rule="nonzero"/></clipPath><clipPath id="d96b17d15d"><path d="M 198.121094 151.988281 C 191.707031 149.933594 184.84375 153.464844 182.789062 159.878906 C 180.734375 166.292969 184.265625 173.15625 190.679688 175.210938 C 197.09375 177.265625 203.957031 173.734375 206.011719 167.320312 C 208.066406 160.90625 204.53125 154.042969 198.121094 151.988281 Z M 198.121094 151.988281 " clip-rule="nonzero"/></clipPath><clipPath id="0177d4e7cd"><path d="M 238 169 L 263 169 L 263 194 L 238 194 Z M 238 169 " clip-rule="nonzero"/></clipPath><clipPath id="f8716619a6"><path d="M 242.585938 166.238281 L 265.808594 173.675781 L 258.367188 196.898438 L 235.144531 189.457031 Z M 242.585938 166.238281 " clip-rule="nonzero"/></clipPath><clipPath id="6c5d8c93fb"><path d="M 254.195312 169.957031 C 247.785156 167.902344 240.921875 171.433594 238.867188 177.847656 C 236.8125 184.261719 240.34375 191.125 246.757812 193.179688 C 253.167969 195.234375 260.03125 191.703125 262.085938 185.289062 C 264.144531 178.875 260.609375 172.011719 254.195312 169.957031 Z M 254.195312 169.957031 " clip-rule="nonzero"/></clipPath><clipPath id="123c9a9bc9"><path d="M 37.5 37.5 L 55.738281 37.5 L 55.738281 106.96875 L 37.5 106.96875 Z M 37.5 37.5 " clip-rule="nonzero"/></clipPath><clipPath id="8a835cfa5d"><path d="M 39.144531 37.492188 L 108.609375 37.492188 L 108.609375 55.730469 L 39.144531 55.730469 Z M 39.144531 37.492188 " clip-rule="nonzero"/></clipPath><clipPath id="86c16ef5ff"><path d="M 268.023438 37.5 L 337.492188 37.5 L 337.492188 55.738281 L 268.023438 55.738281 Z M 268.023438 37.5 " clip-rule="nonzero"/></clipPath><clipPath id="18fd469f35"><path d="M 319.257812 39.140625 L 337.496094 39.140625 L 337.496094 108.609375 L 319.257812 108.609375 Z M 319.257812 39.140625 " clip-rule="nonzero"/></clipPath><clipPath id="3eff9caffd"><path d="M 319.253906 268.023438 L 337.492188 268.023438 L 337.492188 337.488281 L 319.253906 337.488281 Z M 319.253906 268.023438 " clip-rule="nonzero"/></clipPath><clipPath id="870574c52e"><path d="M 266.382812 319.257812 L 335.847656 319.257812 L 335.847656 337.496094 L 266.382812 337.496094 Z M 266.382812 319.257812 " clip-rule="nonzero"/></clipPath><clipPath id="c532ba8ebd"><path d="M 37.5 319.253906 L 106.96875 319.253906 L 106.96875 337.492188 L 37.5 337.492188 Z M 37.5 319.253906 " clip-rule="nonzero"/></clipPath><clipPath id="c38edfce92"><path d="M 37.492188 266.378906 L 55.730469 266.378906 L 55.730469 335.847656 L 37.492188 335.847656 Z M 37.492188 266.378906 " clip-rule="nonzero"/></clipPath><clipPath id="fb6b9504f5"><path d="M 229 225 L 254 225 L 254 250 L 229 250 Z M 229 225 " clip-rule="nonzero"/></clipPath><clipPath id="fb9e1d1fc9"><path d="M 233.351562 222.324219 L 256.574219 229.765625 L 249.132812 252.984375 L 225.910156 245.546875 Z M 233.351562 222.324219 " clip-rule="nonzero"/></clipPath><clipPath id="b97e73c710"><path d="M 244.960938 226.042969 C 238.550781 223.988281 231.683594 227.519531 229.628906 233.933594 C 227.574219 240.347656 231.109375 247.210938 237.519531 249.265625 C 243.933594 251.320312 250.796875 247.789062 252.851562 241.375 C 254.90625 234.960938 251.375 228.097656 244.960938 226.042969 Z M 244.960938 226.042969 " clip-rule="nonzero"/></clipPath><clipPath id="e8e81ea8bf"><path d="M 195 251 L 221 251 L 221 276 L 195 276 Z M 195 251 " clip-rule="nonzero"/></clipPath><clipPath id="3edfac293d"><path d="M 200.183594 248.425781 L 223.40625 255.867188 L 215.964844 279.089844 L 192.742188 271.648438 Z M 200.183594 248.425781 " clip-rule="nonzero"/></clipPath><clipPath id="5fdc8bd801"><path d="M 211.792969 252.148438 C 205.378906 250.09375 198.515625 253.625 196.460938 260.039062 C 194.40625 266.449219 197.941406 273.3125 204.351562 275.367188 C 210.765625 277.421875 217.628906 273.890625 219.683594 267.476562 C 221.738281 261.066406 218.207031 254.203125 211.792969 252.148438 Z M 211.792969 252.148438 " clip-rule="nonzero"/></clipPath></defs><g clip-path="url(#9f496cf79b)"><g clip-path="url(#44fa551ab2)"><g clip-path="url(#b0cb1ce21a)"><path fill="#000000" d="M 152.183594 175.476562 L 175.40625 182.917969 L 167.964844 206.140625 L 144.742188 198.699219 Z M 152.183594 175.476562 " fill-opacity="1" fill-rule="nonzero"/></g></g></g><g clip-path="url(#34f81a8911)"><g clip-path="url(#0476cd1267)"><g clip-path="url(#93205e1ce4)"><path fill="#000000" d="M 202.6875 191.660156 L 225.910156 199.101562 L 218.46875 222.324219 L 195.246094 214.882812 Z M 202.6875 191.660156 " fill-opacity="1" fill-rule="nonzero"/></g></g></g><g clip-path="url(#8933b8155d)"><g clip-path="url(#8df62ef3ae)"><g clip-path="url(#2379776188)"><path fill="#000000" d="M 112.90625 175.707031 L 136.128906 183.148438 L 128.6875 206.371094 L 105.464844 198.929688 Z M 112.90625 175.707031 " fill-opacity="1" fill-rule="nonzero"/></g></g></g><g clip-path="url(#b8d1208016)"><g clip-path="url(#920a959d1c)"><g clip-path="url(#1fdd7563e1)"><path fill="#000000" d="M 164.242188 217.761719 L 187.464844 225.203125 L 180.023438 248.425781 L 156.800781 240.984375 Z M 164.242188 217.761719 " fill-opacity="1" fill-rule="nonzero"/></g></g></g><g clip-path="url(#2265e7e99d)"><g clip-path="url(#e321d9caec)"><g clip-path="url(#496e76930a)"><path fill="#000000" d="M 169.519531 104.402344 L 192.742188 111.84375 L 185.300781 135.066406 L 162.078125 127.625 Z M 169.519531 104.402344 " fill-opacity="1" fill-rule="nonzero"/></g></g></g><g clip-path="url(#c9292c4273)"><g clip-path="url(#54ac60065e)"><g clip-path="url(#44ceb92a9e)"><path fill="#000000" d="M 224.957031 122.164062 L 248.179688 129.605469 L 240.738281 152.828125 L 217.515625 145.386719 Z M 224.957031 122.164062 " fill-opacity="1" fill-rule="nonzero"/></g></g></g><g clip-path="url(#88fbf231c9)"><g clip-path="url(#402f3fc5ea)"><g clip-path="url(#76e100ec0e)"><path fill="#000000" d="M 130.199219 130.226562 L 153.421875 137.664062 L 145.980469 160.886719 L 122.757812 153.445312 Z M 130.199219 130.226562 " fill-opacity="1" fill-rule="nonzero"/></g></g></g><g clip-path="url(#88975a75f5)"><g clip-path="url(#d84752ae0e)"><g clip-path="url(#d96b17d15d)"><path fill="#000000" d="M 186.507812 148.269531 L 209.730469 155.710938 L 202.289062 178.929688 L 179.066406 171.492188 Z M 186.507812 148.269531 " fill-opacity="1" fill-rule="nonzero"/></g></g></g><g clip-path="url(#0177d4e7cd)"><g clip-path="url(#f8716619a6)"><g clip-path="url(#6c5d8c93fb)"><path fill="#000000" d="M 242.585938 166.238281 L 265.808594 173.675781 L 258.367188 196.898438 L 235.144531 189.457031 Z M 242.585938 166.238281 " fill-opacity="1" fill-rule="nonzero"/></g></g></g><g clip-path="url(#123c9a9bc9)"><path fill="#000000" d="M 37.5 37.5 L 55.738281 37.5 L 55.738281 106.960938 L 37.5 106.960938 Z M 37.5 37.5 " fill-opacity="1" fill-rule="nonzero"/></g><g clip-path="url(#8a835cfa5d)"><path fill="#000000" d="M 39.144531 55.730469 L 39.144531 37.492188 L 108.601562 37.492188 L 108.601562 55.730469 Z M 39.144531 55.730469 " fill-opacity="1" fill-rule="nonzero"/></g><g clip-path="url(#86c16ef5ff)"><path fill="#000000" d="M 337.492188 37.5 L 337.492188 55.738281 L 268.03125 55.738281 L 268.03125 37.5 Z M 337.492188 37.5 " fill-opacity="1" fill-rule="nonzero"/></g><g clip-path="url(#18fd469f35)"><path fill="#000000" d="M 319.257812 39.140625 L 337.496094 39.140625 L 337.496094 108.601562 L 319.257812 108.601562 Z M 319.257812 39.140625 " fill-opacity="1" fill-rule="nonzero"/></g><g clip-path="url(#3eff9caffd)"><path fill="#000000" d="M 337.492188 337.488281 L 319.253906 337.488281 L 319.253906 268.03125 L 337.492188 268.03125 Z M 337.492188 337.488281 " fill-opacity="1" fill-rule="nonzero"/></g><g clip-path="url(#870574c52e)"><path fill="#000000" d="M 335.847656 319.257812 L 335.847656 337.496094 L 266.386719 337.496094 L 266.386719 319.257812 Z M 335.847656 319.257812 " fill-opacity="1" fill-rule="nonzero"/></g><g clip-path="url(#c532ba8ebd)"><path fill="#000000" d="M 37.5 337.492188 L 37.5 319.253906 L 106.960938 319.253906 L 106.960938 337.492188 Z M 37.5 337.492188 " fill-opacity="1" fill-rule="nonzero"/></g><g clip-path="url(#c38edfce92)"><path fill="#000000" d="M 55.730469 335.847656 L 37.492188 335.847656 L 37.492188 266.386719 L 55.730469 266.386719 Z M 55.730469 335.847656 " fill-opacity="1" fill-rule="nonzero"/></g><g clip-path="url(#fb6b9504f5)"><g clip-path="url(#fb9e1d1fc9)"><g clip-path="url(#b97e73c710)"><path fill="#000000" d="M 233.351562 222.324219 L 256.574219 229.765625 L 249.132812 252.984375 L 225.910156 245.546875 Z M 233.351562 222.324219 " fill-opacity="1" fill-rule="nonzero"/></g></g></g><g clip-path="url(#e8e81ea8bf)"><g clip-path="url(#3edfac293d)"><g clip-path="url(#5fdc8bd801)"><path fill="#000000" d="M 200.183594 248.425781 L 223.40625 255.867188 L 215.964844 279.089844 L 192.742188 271.648438 Z M 200.183594 248.425781 " fill-opacity="1" fill-rule="nonzero"/></g></g></g></svg>